<svg xmlns="http://www.w3.org/2000/svg" version="1.1" xmlns:xlink="http://www.w3.org/1999/xlink" xmlns:svgjs="http://svgjs.com/svgjs" width="512" height="512" x="0" y="0" viewBox="0 0 512 512" style="enable-background:new 0 0 512 512" xml:space="preserve" class=""><g><g id="_16_Success" data-name="16 Success"><path d="m384.05 512.05h-262.05a37 37 0 0 1 -37-37v-347.72a37 37 0 0 1 37-37h262.1a37 37 0 0 1 37 37v347.72a37 37 0 0 1 -37.05 37zm-249.1-50h236.1v-321.72h-236.05z" fill="#494949" data-original="#000000"></path><path d="m487 448a25 25 0 0 1 -25-25v-373h-249a25 25 0 0 1 0-50h262a37 37 0 0 1 37 37v386a25 25 0 0 1 -25 25z" fill="#494949" data-original="#000000"></path></g></g></svg>