<svg xmlns="http://www.w3.org/2000/svg" version="1.1" xmlns:xlink="http://www.w3.org/1999/xlink" xmlns:svgjs="http://svgjs.com/svgjs" width="512" height="512" x="0" y="0" viewBox="0 0 512 512" style="enable-background:new 0 0 512 512" xml:space="preserve" class=""><g>
<path style="" d="M305.768,100.667c25.252,27.143,25.574,26.623,25.578,30.006l0,0V97.67
	c0-3.61,2.927-6.537,6.537-6.537h11.583c2.848,0,5.246,1.833,6.142,4.375c-4.309-49.245-45.626-87.88-95.99-87.88h-7.352
	c-50.363,0-91.68,38.634-95.99,87.879c0.896-2.541,3.294-4.374,6.142-4.374h11.583c3.61,0,6.537,2.927,6.537,6.537v38.078
	c0-4.008,3.423-7.173,7.39-6.872c39.117,2.81,78.926-9.62,109.025-29.283C299.763,97.756,303.484,98.213,305.768,100.667z" fill="#576574" data-original="#576574"></path>
<path style="" d="M185.559,103.745c0-49.33,37.161-89.972,85.017-95.475c-3.599-0.408-7.251-0.642-10.959-0.642h-7.352
	c-50.363,0-91.68,38.635-95.99,87.879c0.896-2.542,3.294-4.375,6.142-4.375H174c3.61,0,6.537,2.927,6.537,6.537v38.078
	c0-3.177,2.154-5.817,5.022-6.629V103.745z" fill="#3e4b5a" data-original="#3e4b5a"></path>
<path style="" d="M256.153,264.975c-16.361,0-30.74-4.492-42.5-12.006v39.746l42.318,52.235l42.317-52.235v-40.867
	C286.3,260.118,271.785,264.975,256.153,264.975z" fill="#ffbeab" data-original="#ffbeab"></path>
<path style="" d="M240.755,263.575c-10.089-1.872-19.19-5.551-27.102-10.606v39.746l27.102,33.452V263.575z" fill="#f7af9f" data-original="#f7af9f"></path>
<path style="" d="M410.208,333.387l-111.949-43.355l-42.317,52.235l-42.318-52.235l-111.832,43.355
	c0,0-41.406,17.022-41.406,64.224v104.757c0,5.32,4.312,9.632,9.632,9.632h372.048c5.273,0,9.548-4.275,9.548-9.548V397.611
	C451.614,350.409,410.208,333.387,410.208,333.387z" fill="#4c89e3" data-original="#54a0ff" class=""></path>
<path style="" d="M87.517,502.368V385.415c0-32.385,19.489-50.56,31.725-58.782l-17.42,6.754
	c0,0-41.406,17.022-41.406,64.224v104.757c0,5.319,4.313,9.632,9.632,9.632H97.15C91.829,512,87.517,507.688,87.517,502.368z" fill="#4682da" data-original="#338def" class=""></path>
<path style="" d="M304.951,97.64c-2.286-2.457-6.01-2.914-8.823-1.076c-30.129,19.682-69.977,32.124-109.133,29.312
	c-3.971-0.301-7.397,2.868-7.397,6.88v60.502c0,38.885,30.468,74.4,76.555,74.4c41.025,0,74.402-33.376,74.402-74.4v-65.386
	C330.554,124.257,330.71,125.328,304.951,97.64z" fill="#ffcdbf" data-original="#ffcdbf"></path>
<path style="" d="M206.699,193.258v-67.225c-6.555,0.348-13.139,0.315-19.704-0.156
	c-3.971-0.301-7.397,2.868-7.397,6.88v60.502c0,38.885,30.468,74.4,76.555,74.4c4.252,0,8.415-0.378,12.474-1.066
	C233.522,260.638,206.699,230.03,206.699,193.258z" fill="#ffbeab" data-original="#ffbeab"></path>
<g>
	<path style="" d="M307.066,369.106l31.644-63.42l-40.422-15.655l-42.317,52.235l41.258,29.302
		C300.568,373.94,305.236,372.772,307.066,369.106z" fill="#4682da" data-original="#338def" class=""></path>
	<path style="" d="M204.934,369.106l-31.644-63.42l40.422-15.655l42.317,52.235l-41.258,29.302
		C211.432,373.94,206.763,372.772,204.934,369.106z" fill="#4682da" data-original="#338def" class=""></path>
</g>
<path style="" d="M256.025,342.302v-0.036L256,342.284l-0.025-0.018v0.036l-30.008,21.312l14.184,21.348
	c11.444,0,20.257,0,31.698,0l14.184-21.348L256.025,342.302z" fill="#ff6b6b" data-original="#ff6b6b"></path>
<path style="" d="M218.649,512h74.702l-21.502-127.037c-11.444,0-20.257,0-31.698,0L218.649,512z" fill="#fc8686" data-original="#fc8686"></path>
<path style="" d="M271.016,352.949l-14.991-10.647v-0.036L256,342.284l-0.026-0.018v0.036l-30.008,21.312
	l14.185,21.348c11.037,0,19.608,0,30.033,0l-11.647-17.529c-1.414-2.129-0.882-4.995,1.201-6.475L271.016,352.949z" fill="#ee5253" data-original="#ee5253" class=""></path>
<path style="" d="M240.151,384.963L218.649,512h30.034l21.501-127.037
	C259.713,384.963,251.229,384.963,240.151,384.963z" fill="#ff6b6b" data-original="#ff6b6b"></path>
<g>
	<path style="" d="M388.757,512v-98.152c0-4.213-3.415-7.628-7.628-7.628c-4.213,0-7.628,3.415-7.628,7.628V512
		H388.757z" fill="#4682da" data-original="#338def" class=""></path>
	<path style="" d="M138.501,512v-98.152c0-4.213-3.415-7.628-7.628-7.628s-7.628,3.415-7.628,7.628V512H138.501z" fill="#4682da" data-original="#338def" class=""></path>
</g>
<path style="" d="M335.846,236.147h-67.282c-4.213,0-7.628-3.415-7.628-7.628s3.415-7.628,7.628-7.628h67.282
	c10.857,0,19.69-8.833,19.69-19.69v-34.798c0-4.213,3.415-7.628,7.628-7.628c4.213,0,7.628,3.415,7.628,7.628v34.798
	C370.792,220.47,355.115,236.147,335.846,236.147z" fill="#3e4b5a" data-original="#3e4b5a"></path>
<g>
	<path style="" d="M355.608,112.367c-4.213,0-7.628-3.415-7.628-7.628v-8.891
		c-4.126-45.219-42.876-80.592-88.363-80.592h-7.352c-45.486,0-84.235,35.373-88.363,80.592v8.892c0,4.213-3.415,7.628-7.628,7.628
		s-7.628-3.415-7.628-7.628v-9.232c0-0.222,0.01-0.444,0.029-0.665c2.259-25.814,14.034-49.733,33.155-67.351
		C201.072,9.763,226.086,0,252.266,0h7.352c26.18,0,51.194,9.763,70.435,27.491c19.121,17.618,30.896,41.537,33.155,67.351
		c0.019,0.221,0.029,0.443,0.029,0.665v9.231C363.235,108.952,359.82,112.367,355.608,112.367z" fill="#e4eaf8" data-original="#e4eaf8" class=""></path>
	<path style="" d="M394.758,138.465c0-21.404-17.568-38.755-39.239-38.755v77.51
		C377.19,177.22,394.758,159.869,394.758,138.465z" fill="#e4eaf8" data-original="#e4eaf8" class=""></path>
	<path style="" d="M117.125,138.465c0-21.404,17.351-38.755,38.755-38.755v77.51
		C134.477,177.22,117.125,159.869,117.125,138.465z" fill="#e4eaf8" data-original="#e4eaf8" class=""></path>
</g>
<g>
	<path style="" d="M375.86,105.318c-5.932-3.558-12.894-5.607-20.341-5.607v77.51c7.447,0,14.409-2.049,20.341-5.607
		V105.318z" fill="#d8dce5" data-original="#d8dce5" class=""></path>
	<path style="" d="M137.466,138.466c0-13.942,7.366-26.16,18.414-32.987V99.71c-21.403,0-38.755,17.351-38.755,38.755
		c0,21.403,17.351,38.755,38.755,38.755v-5.768C144.832,164.625,137.466,152.407,137.466,138.466z" fill="#d8dce5" data-original="#d8dce5" class=""></path>
	<path style="" d="M162.417,91.133h11.584c3.61,0,6.537,2.927,6.537,6.537v81.592c0,3.61-2.927,6.537-6.537,6.537
		h-11.584c-3.61,0-6.537-2.927-6.537-6.537V97.67C155.881,94.059,158.807,91.133,162.417,91.133z" fill="#d8dce5" data-original="#d8dce5" class=""></path>
</g>
<path style="" d="M173.425,179.262V97.67c0-2.536,1.446-4.729,3.557-5.813c-0.894-0.459-1.906-0.724-2.98-0.724
	h-11.584c-3.61,0-6.537,2.927-6.537,6.537v81.592c0,3.61,2.926,6.537,6.537,6.537h11.584c1.075,0,2.086-0.264,2.98-0.724
	C174.871,183.991,173.425,181.797,173.425,179.262z" fill="#c3c8d1" data-original="#c3c8d1"></path>
<path style="" d="M264.365,240.921h-9.594c-6.849,0-12.402-5.552-12.402-12.402c0-6.849,5.552-12.402,12.402-12.402
	h9.594c6.849,0,12.402,5.552,12.402,12.402C276.766,235.368,271.214,240.921,264.365,240.921z" fill="#576574" data-original="#576574"></path>
<path style="" d="M262.71,228.519c0-4.921,2.874-9.16,7.028-11.164c-1.628-0.785-3.446-1.238-5.374-1.238h-9.594
	c-6.849,0-12.402,5.552-12.402,12.402c0,6.849,5.552,12.402,12.402,12.402h9.594c1.928,0,3.746-0.453,5.374-1.238
	C265.584,237.679,262.71,233.44,262.71,228.519z" fill="#3e4b5a" data-original="#3e4b5a"></path>
<path style="" d="M348.901,91.133h-10.728c-3.655,0-6.618,2.927-6.618,6.537v81.592c0,3.61,2.963,6.537,6.618,6.537
	h10.728c3.655,0,6.618-2.927,6.618-6.537V97.67C355.519,94.059,352.556,91.133,348.901,91.133z" fill="#d8dce5" data-original="#d8dce5" class=""></path>
<path style="" d="M348.098,179.262V97.67c0-2.578,1.515-4.802,3.711-5.866c-0.878-0.426-1.863-0.671-2.908-0.671
	h-11.728c-3.655,0-6.618,2.927-6.618,6.537v81.592c0,3.61,2.963,6.537,6.618,6.537h11.728c1.045,0,2.029-0.246,2.908-0.672
	C349.613,184.063,348.098,181.84,348.098,179.262z" fill="#c3c8d1" data-original="#c3c8d1"></path>
<g>
</g>
<g>
</g>
<g>
</g>
<g>
</g>
<g>
</g>
<g>
</g>
<g>
</g>
<g>
</g>
<g>
</g>
<g>
</g>
<g>
</g>
<g>
</g>
<g>
</g>
<g>
</g>
<g>
</g>
</g></svg>