<svg xmlns="http://www.w3.org/2000/svg" version="1.1" xmlns:xlink="http://www.w3.org/1999/xlink" xmlns:svgjs="http://svgjs.com/svgjs" width="512" height="512" x="0" y="0" viewBox="0 0 520 520" style="enable-background:new 0 0 512 512" xml:space="preserve" class=""><g><g id="_x36_66_x2C__Cloud_x2C__Hosting_x2C__Server"><g><g><path d="m127.5 106.083h275v377.667h-275z" fill="#33383f" data-original="#33383f"></path><g fill="#57606f"><path d="m418 381.25h-15.5-275-15.5c-10.77 0-19.5 8.73-19.5 19.5v51c0 10.77 8.73 19.5 19.5 19.5h15.5 275 15.5c10.77 0 19.5-8.73 19.5-19.5v-51c0-10.77-8.73-19.5-19.5-19.5z" fill="#57606f" data-original="#57606f" class=""></path><path d="m418 266.25h-15.5-275-15.5c-10.77 0-19.5 8.73-19.5 19.5v51c0 10.77 8.73 19.5 19.5 19.5h15.5 275 15.5c10.77 0 19.5-8.73 19.5-19.5v-51c0-10.77-8.73-19.5-19.5-19.5z" fill="#57606f" data-original="#57606f" class=""></path><path d="m418 151.25h-15.5-275-15.5c-10.77 0-19.5 8.73-19.5 19.5v51c0 10.77 8.73 19.5 19.5 19.5h15.5 275 15.5c10.77 0 19.5-8.73 19.5-19.5v-51c0-10.77-8.73-19.5-19.5-19.5z" fill="#57606f" data-original="#57606f" class=""></path><path d="m418 36.25h-306c-10.77 0-19.5 8.73-19.5 19.5v51c0 10.77 8.73 19.5 19.5 19.5h15.5 275 15.5c10.77 0 19.5-8.73 19.5-19.5v-51c0-10.77-8.73-19.5-19.5-19.5z" fill="#57606f" data-original="#57606f" class=""></path></g><path d="m397.5 411.25c8.28 0 15 6.72 15 15s-6.72 15-15 15-15-6.72-15-15 6.72-15 15-15z" fill="#07cc66" data-original="#07cc66" class=""></path><path d="m397.5 296.25c8.28 0 15 6.72 15 15s-6.72 15-15 15-15-6.72-15-15 6.72-15 15-15z" fill="#07cc66" data-original="#07cc66" class=""></path><path d="m397.5 181.25c8.28 0 15 6.72 15 15s-6.72 15-15 15-15-6.72-15-15 6.72-15 15-15z" fill="#07cc66" data-original="#07cc66" class=""></path><path d="m397.5 66.25c8.28 0 15 6.72 15 15s-6.72 15-15 15-15-6.72-15-15 6.72-15 15-15z" fill="#07cc66" data-original="#07cc66" class=""></path><path d="m347.5 411.25c8.28 0 15 6.72 15 15s-6.72 15-15 15-15-6.72-15-15 6.72-15 15-15z" fill="#ffd400" data-original="#ffd400" class=""></path><path d="m347.5 296.25c8.28 0 15 6.72 15 15s-6.72 15-15 15-15-6.72-15-15 6.72-15 15-15z" fill="#ffd400" data-original="#ffd400" class=""></path><path d="m347.5 181.25c8.28 0 15 6.72 15 15s-6.72 15-15 15-15-6.72-15-15 6.72-15 15-15z" fill="#ffd400" data-original="#ffd400" class=""></path><path d="m347.5 66.25c8.28 0 15 6.72 15 15s-6.72 15-15 15-15-6.72-15-15 6.72-15 15-15z" fill="#ffd400" data-original="#ffd400" class=""></path><path d="m472.5 146.25c8.28 0 15 6.72 15 15s-6.72 15-15 15-15-6.72-15-15 6.72-15 15-15z" fill="#4682da" data-original="#5cbeff" class=""></path><path d="m52.5 356.25c11.05 0 20 8.95 20 20s-8.95 20-20 20-20-8.95-20-20 8.95-20 20-20z" fill="#4682da" data-original="#5cbeff" class=""></path><g fill="#ecebed"><path d="m481.92 100.86c1.59 3.82-.21 8.21-4.03 9.81-3.819 1.6-8.22-.21-9.81-4.03-1.6-3.82.21-8.22 4.03-9.81 3.82-1.6 8.21.2 9.81 4.03z" fill="#ecebed" data-original="#ecebed"></path><path d="m476.92 355.86c1.59 3.819-.21 8.21-4.03 9.81-3.819 1.59-8.22-.21-9.81-4.03-1.6-3.819.21-8.22 4.03-9.81 3.82-1.6 8.21.21 9.81 4.03z" fill="#ecebed" data-original="#ecebed"></path><path d="m466.92 245.86c1.59 3.82-.21 8.21-4.03 9.81-3.819 1.6-8.22-.21-9.81-4.03-1.6-3.82.21-8.22 4.03-9.81 3.82-1.6 8.21.2 9.81 4.03z" fill="#ecebed" data-original="#ecebed"></path><path d="m76.92 195.86c1.6 3.82-.2 8.21-4.03 9.81-3.82 1.6-8.21-.21-9.81-4.03s.21-8.22 4.03-9.81c3.82-1.6 8.22.2 9.81 4.03z" fill="#ecebed" data-original="#ecebed"></path><path d="m71.92 435.86c1.6 3.819-.21 8.22-4.03 9.81-3.82 1.6-8.22-.21-9.81-4.03-1.6-3.819.2-8.21 4.03-9.81 3.82-1.59 8.21.21 9.81 4.03z" fill="#ecebed" data-original="#ecebed"></path><path d="m66.92 305.86c1.6 3.819-.2 8.21-4.03 9.81-3.82 1.59-8.21-.21-9.81-4.03-1.6-3.819.21-8.22 4.03-9.81 3.82-1.6 8.22.21 9.81 4.03z" fill="#ecebed" data-original="#ecebed"></path><path d="m51.92 70.86c1.6 3.82-.2 8.21-4.03 9.81-3.82 1.6-8.21-.21-9.81-4.03s.21-8.22 4.03-9.81c3.82-1.6 8.22.2 9.81 4.03z" fill="#ecebed" data-original="#ecebed"></path></g><path d="m272.5 431.25h-155c-2.761 0-5-2.238-5-5s2.239-5 5-5h155c2.762 0 5 2.238 5 5s-2.238 5-5 5z" fill="#c6f9de" data-original="#c6f9de"></path><path d="m272.5 316.25h-155c-2.761 0-5-2.238-5-5s2.239-5 5-5h155c2.762 0 5 2.238 5 5s-2.238 5-5 5z" fill="#c6f9de" data-original="#c6f9de"></path><path d="m272.5 201.25h-155c-2.761 0-5-2.239-5-5s2.239-5 5-5h155c2.762 0 5 2.239 5 5s-2.238 5-5 5z" fill="#c6f9de" data-original="#c6f9de"></path><path d="m272.5 86.25h-155c-2.761 0-5-2.239-5-5s2.239-5 5-5h155c2.762 0 5 2.239 5 5s-2.238 5-5 5z" fill="#c6f9de" data-original="#c6f9de"></path></g></g></g></g></svg>