<svg xmlns="http://www.w3.org/2000/svg" version="1.1" xmlns:xlink="http://www.w3.org/1999/xlink" xmlns:svgjs="http://svgjs.com/svgjs" width="512" height="512" x="0" y="0" viewBox="0 0 48 48" style="enable-background:new 0 0 512 512" xml:space="preserve" class=""><g><g id="Icons"><path d="m9 19-4.944 17.305a2.9 2.9 0 0 0 2.787 3.695 2.9 2.9 0 0 0 2.777-2.066l5.38-17.934z" fill="#656d78" data-original="#656d78" class=""></path><path d="m13 26 20 6h1v-22h-1l-20 6h-2v10z" fill="#e6e9ed" data-original="#e6e9ed" class=""></path><path d="m7 16h6v10h-6a4 4 0 0 1 -4-4v-2a4 4 0 0 1 4-4z" fill="#4682da" data-original="#ff826e" class=""></path><path d="m33 10v-1a1 1 0 0 1 1-1h2a1 1 0 0 1 1 1v24a1 1 0 0 1 -1 1h-2a1 1 0 0 1 -1-1z" fill="#4682da" data-original="#ff826e" class=""></path><g fill="#adafb2"><path d="m44 22h-4a1 1 0 0 1 0-2h4a1 1 0 0 1 0 2z" fill="#adafb2" data-original="#adafb2"></path><path d="m40 16a1 1 0 0 1 -.707-1.707l4-4a1 1 0 0 1 1.414 1.414l-4 4a1 1 0 0 1 -.707.293z" fill="#adafb2" data-original="#adafb2"></path><path d="m44 32a1 1 0 0 1 -.707-.293l-4-4a1 1 0 0 1 1.414-1.414l4 4a1 1 0 0 1 -.707 1.707z" fill="#adafb2" data-original="#adafb2"></path></g></g></g></svg>