<svg xmlns="http://www.w3.org/2000/svg" version="1.1" xmlns:xlink="http://www.w3.org/1999/xlink" xmlns:svgjs="http://svgjs.com/svgjs" width="512" height="512" x="0" y="0" viewBox="0 0 24 24" style="enable-background:new 0 0 512 512" xml:space="preserve" class=""><g><path d="m14 3h-8a3.009 3.009 0 0 0 -3 3v8a3.009 3.009 0 0 0 3 3h8a3.009 3.009 0 0 0 3-3v-8a3.009 3.009 0 0 0 -3-3zm-2 8h-1v1a1 1 0 0 1 -2 0v-1h-1a1 1 0 0 1 0-2h1v-1a1 1 0 0 1 2 0v1h1a1 1 0 0 1 0 2z" fill="#ffffff" data-original="#000000"></path><path d="m16 21h-9a1 1 0 0 1 0-2h9a3 3 0 0 0 3-3v-9a1 1 0 0 1 2 0v9a5.006 5.006 0 0 1 -5 5z" fill="#ffffff" data-original="#000000"></path></g></svg>